<svg width="173" height="61" viewBox="0 0 173 61" fill="none" xmlns="http://www.w3.org/2000/svg">
<g clip-path="url(#clip0_603_83)">
<path d="M172.77 0.340085C164.84 3.71008 156.92 7.09009 148.99 10.4601C138.6 14.8701 128.21 19.2601 117.82 23.6601C107.35 28.1001 96.8804 32.5401 86.4104 36.9801C76.0204 41.3901 65.6204 45.7701 55.2404 50.2101C45.0204 54.5801 34.8804 59.2001 23.6004 60.2201C17.3904 60.7801 11.4004 60.1101 6.37036 56.0501C0.070363 50.9301 -0.879637 44.0501 0.630363 36.5901C2.46036 27.5701 7.28036 20.0401 12.8404 12.9301C15.1904 9.92009 17.7604 7.08008 20.1904 4.13008C20.8704 3.31008 21.4504 2.40008 22.0804 1.54008L22.9104 2.17008C22.1304 4.11008 21.1204 6.00009 20.6304 8.01009C19.7304 11.7001 18.6304 15.4501 18.5304 19.2001C18.3004 27.7101 24.1904 33.7301 32.7104 34.5101C38.9504 35.0801 44.9604 33.9301 50.9204 32.3401C91.2604 21.5801 131.58 10.8001 171.9 0.0300846C172.13 -0.0299154 172.38 0.0300846 172.63 0.0300846C172.68 0.140085 172.73 0.240085 172.78 0.350085L172.77 0.340085Z" fill="black"/>
</g>
<defs>
<clipPath id="clip0_603_83">
<rect width="172.77" height="60.38" fill="white"/>
</clipPath>
</defs>
</svg>
